<?xml version="1.0" standalone="no"?>
<!DOCTYPE svg PUBLIC "-//W3C//DTD SVG 1.1//EN" "http://www.w3.org/Graphics/SVG/1.1/DTD/svg11.dtd">
<svg xmlns="http://www.w3.org/2000/svg" id="Capa_1" data-name="Capa 1" viewBox="0 0 500 300" width="500" height="300">
  <defs>
    <style>
      .cls-1 {
        fill: #555656;
      }

      .cls-1, .cls-2, .cls-3, .cls-4, .cls-5, .cls-6 {
        stroke-width: 0px;
      }

      .cls-2 {
        fill: none;
      }

      .cls-3 {
        fill: #909090;
      }

      .cls-4 {
        fill: #fff;
      }

      .cls-5 {
        fill: #f4a51c;
      }

      .cls-6 {
        fill: #404040;
      }
    </style>
  </defs>
  <g>
    <path class="cls-2" d="m215.52,77.4l-7.37,18.29c18.82,10.79,31.5,31.06,31.5,54.31,0,8.07-1.54,15.78-4.33,22.87h20.66c2.1-7.27,3.25-14.93,3.25-22.87,0-31.48-17.71-58.81-43.71-72.61Z"/>
    <path class="cls-2" d="m201.65,111.84l-24.59,61.03h39.23c3.92-6.72,6.18-14.53,6.18-22.87,0-16.01-8.3-30.08-20.82-38.16Z"/>
    <path class="cls-2" d="m177.06,212.59c-34.57,0-62.58-28.02-62.58-62.59s28.02-62.59,62.58-62.59c11.32,0,21.93,3.02,31.09,8.27l7.37-18.29c-11.47-6.1-24.56-9.56-38.46-9.56-45.38,0-82.16,36.78-82.16,82.16s36.78,82.16,82.16,82.16c37.44,0,69.01-25.05,78.92-59.29h-20.66c-9.14,23.25-31.77,39.72-58.26,39.72Z"/>
    <path class="cls-2" d="m201.65,111.84c-7.09-4.58-15.53-7.24-24.59-7.24-25.07,0-45.4,20.33-45.4,45.4s20.33,45.41,45.4,45.41c16.74,0,31.35-9.06,39.23-22.54h-39.23l24.59-61.03Z"/>
    <path class="cls-2" d="m177.06,248.2c-54.23,0-98.2-43.96-98.2-98.2s43.97-98.2,98.2-98.2c16.02,0,31.12,3.85,44.48,10.65l6.57-16.3c-15.4-7.59-32.72-11.86-51.05-11.86-63.9,0-115.71,51.81-115.71,115.71s51.81,115.71,115.71,115.71c56.08,0,102.83-39.89,113.44-92.84h-17.94c-10.31,43.2-49.14,75.33-95.5,75.33Z"/>
    <path class="cls-2" d="m228.1,46.15l-6.57,16.3c31.88,16.23,53.73,49.32,53.73,87.54,0,7.87-.95,15.53-2.7,22.87h17.94c1.48-7.39,2.27-15.04,2.27-22.87,0-45.58-26.36-84.99-64.67-103.85Z"/>
    <path class="cls-5" d="m290.5,172.87c-10.62,52.95-57.37,92.84-113.44,92.84-63.9,0-115.71-51.8-115.71-115.71s51.81-115.71,115.71-115.71c18.33,0,35.65,4.28,51.05,11.86l8.46-21.01c-18.03-8.61-38.2-13.43-59.51-13.43-76.38,0-138.29,61.92-138.29,138.3s61.92,138.29,138.29,138.29c68.59,0,125.48-49.93,136.38-115.42h-22.94Z"/>
    <path class="cls-5" d="m78.86,150c0,54.24,43.97,98.2,98.2,98.2,46.36,0,85.19-32.13,95.5-75.33h-16.58c-9.91,34.24-41.48,59.29-78.92,59.29-45.38,0-82.16-36.79-82.16-82.16s36.78-82.16,82.16-82.16c13.9,0,26.99,3.46,38.46,9.56l6.02-14.94c-13.36-6.8-28.46-10.65-44.48-10.65-54.23,0-98.2,43.97-98.2,98.2Z"/>
    <path class="cls-5" d="m114.47,150c0,34.56,28.02,62.59,62.58,62.59,26.49,0,49.13-16.47,58.26-39.72h-19.03c-7.88,13.48-22.49,22.54-39.23,22.54-25.07,0-45.4-20.33-45.4-45.41s20.33-45.4,45.4-45.4c9.06,0,17.5,2.66,24.59,7.24l6.5-16.15c-9.16-5.25-19.77-8.27-31.09-8.27-34.57,0-62.58,28.02-62.58,62.59Z"/>
  </g>
  <g>
    <g>
      <path class="cls-3" d="m164.03,142.99v-26.94h5.06l12.69,16.29,12.43-16.29h5.01v26.94h-5.79v-16.66c0-.66.07-1.62.21-2.87-.67,1.36-1.18,2.3-1.57,2.82l-10.13,13.47h-1.25l-10.13-13.52c-.73-.97-1.27-1.9-1.62-2.77.1,1.08.16,2.04.16,2.87v16.66h-5.06Z"/>
      <path class="cls-3" d="m212.43,142.99v-26.94h27.57v4.59h-21.3v6.01h12.43v4.6h-12.43v6.68h21.57v5.06h-27.83Z"/>
      <path class="cls-3" d="m251.8,142.99v-26.94h4.28l18.95,15.87c1.36,1.15,2.38,2.12,3.08,2.92-.18-2.5-.26-4.05-.26-4.65v-14.15h5.64v26.94h-4.28l-19.79-16.66c-.83-.69-1.58-1.43-2.25-2.19.18,1.74.26,3.17.26,4.29v14.57h-5.64Z"/>
      <path class="cls-3" d="m292.06,142.99l15.24-26.94h6.06l15.46,26.94h-7.05l-3.23-5.9h-17.07l-3.14,5.9h-6.26Zm12.06-10.76h11.8l-5.8-10.97-6,10.97Z"/>
      <path class="cls-1" d="m350.02,120.85v22.14h-6.27v-22.14h-12.38v-4.81h31.07v4.81h-12.43Z"/>
      <path class="cls-1" d="m370.12,142.99v-26.94h6.27v26.94h-6.27Z"/>
      <path class="cls-1" d="m412.78,120.85h-16.92v17.07h16.92v-5.8l6.27,1.31v3.18c0,2.51-.47,4.19-1.41,5.07-.94.87-2.7,1.31-5.28,1.31h-16.08c-2.58,0-4.33-.44-5.27-1.31-.94-.87-1.41-2.56-1.41-5.07v-14.2c0-2.51.47-4.19,1.41-5.06.94-.87,2.7-1.31,5.27-1.31h16.08c2.58,0,4.33.44,5.28,1.31.94.87,1.41,2.55,1.41,5.06v2.56l-6.27.99v-5.12Z"/>
      <path class="cls-1" d="m455.34,120.75h-17.7v5.79h16.85c2.58,0,4.35.44,5.31,1.31.96.87,1.44,2.56,1.44,5.07v3.7c0,2.51-.47,4.19-1.44,5.07-.96.87-2.72,1.31-5.3,1.31h-16.66c-2.57,0-4.34-.44-5.29-1.31-.96-.87-1.44-2.56-1.44-5.07v-.73l5.53-1.14v3.18h19.06v-6.16h-16.81c-2.58,0-4.33-.44-5.28-1.31-.94-.87-1.41-2.56-1.41-5.06v-2.98c0-2.51.47-4.19,1.41-5.06.94-.87,2.7-1.31,5.28-1.31h15.3c2.47,0,4.2.42,5.19,1.25,1,.83,1.49,2.38,1.49,4.65v.58l-5.53,1.31v-3.08Z"/>
    </g>
    <path class="cls-6" d="m458.95,164.53c0,2.98-2.38,5.39-5.31,5.39h-245.05c-2.93,0-5.31-2.41-5.31-5.39v-10.15c0-2.98,2.38-5.39,5.31-5.39h245.05c2.93,0,5.31,2.41,5.31,5.39v10.15Z"/>
    <g>
      <path class="cls-4" d="m214.51,157.83c0-.84.1-1.56.31-2.14.2-.58.5-1.06.89-1.43.39-.36.86-.64,1.41-.8.55-.17,1.18-.25,1.88-.25h3.28c.14,0,.26.05.35.15.09.1.14.22.14.35,0,.14-.05.26-.14.36-.1.1-.22.15-.35.15h-3.28c-1.07,0-1.91.28-2.52.84-.61.56-.92,1.48-.92,2.77v4.23c0,.51.07.98.22,1.41.15.43.36.8.66,1.11.29.31.65.56,1.08.74.42.18.92.27,1.48.27h3.24c.16,0,.28.05.38.14.1.1.15.22.15.36,0,.13-.05.24-.14.34-.1.1-.22.15-.35.15h-3.28c-.73,0-1.37-.11-1.92-.32-.55-.22-1.02-.52-1.4-.92-.38-.39-.67-.87-.87-1.42-.2-.56-.3-1.17-.3-1.85v-4.23Z"/>
      <path class="cls-4" d="m241.51,153.21c.7,0,1.33.08,1.88.25.56.16,1.02.44,1.41.8.39.37.68.85.89,1.43.21.59.31,1.3.31,2.14v4.23c0,.68-.1,1.29-.3,1.85-.2.55-.48,1.02-.87,1.42-.39.4-.85.7-1.41.92-.55.22-1.19.32-1.92.32h-.88c-.71,0-1.35-.11-1.91-.32-.56-.22-1.03-.52-1.41-.92-.39-.39-.67-.87-.87-1.42-.2-.56-.3-1.17-.3-1.85v-4.23c0-.84.11-1.56.32-2.14.21-.58.51-1.06.9-1.43.39-.36.86-.64,1.41-.8.55-.17,1.17-.25,1.86-.25h.88Zm-4.3,8.86c0,.51.07.98.22,1.41.15.43.37.8.66,1.11.29.31.64.56,1.07.74.42.18.91.27,1.47.27h.88c.56,0,1.05-.09,1.48-.27.42-.18.78-.42,1.08-.74.29-.31.51-.68.66-1.11.15-.42.22-.89.22-1.41v-4.23c0-1.29-.3-2.21-.92-2.77-.61-.56-1.45-.84-2.52-.84h-.88c-1.06,0-1.89.28-2.5.84-.61.56-.92,1.48-.92,2.77v4.23Z"/>
      <path class="cls-4" d="m264.07,160.18h-3.1v5.88c0,.14-.05.26-.15.36-.1.1-.22.15-.36.15-.15,0-.28-.05-.37-.15-.1-.1-.15-.22-.15-.36v-11.99c0-.26.08-.46.24-.62.16-.16.36-.24.6-.24h4.31c.48,0,.94.09,1.37.28.43.18.8.43,1.11.75.31.32.56.69.75,1.1.18.42.28.87.28,1.34s-.09.91-.26,1.32c-.17.41-.41.78-.7,1.09-.3.31-.65.56-1.05.75-.41.19-.83.3-1.29.32l3.02,5.63c.02.07.04.11.05.14,0,.04,0,.07,0,.11,0,.14-.05.26-.15.36-.1.1-.22.15-.36.15-.22,0-.37-.1-.46-.3l-3.32-6.09Zm1.03-1.01c.35,0,.67-.07.96-.19.3-.13.56-.3.8-.54.23-.23.41-.5.53-.79.13-.3.19-.62.19-.96s-.06-.67-.19-.97c-.12-.3-.3-.56-.53-.78-.23-.22-.49-.4-.8-.53-.3-.13-.62-.18-.96-.18h-4.12v4.94h4.12Z"/>
      <path class="cls-4" d="m282.53,154.07c0-.26.08-.46.24-.62.16-.16.36-.24.61-.24h4.32c.48,0,.94.09,1.36.28.43.18.8.43,1.11.75.31.32.56.69.74,1.1.19.42.28.87.28,1.34s-.09.94-.28,1.36c-.18.42-.43.8-.74,1.1-.31.32-.68.57-1.11.75-.43.18-.88.28-1.36.28h-4.13v5.84c0,.16-.05.3-.15.4-.1.1-.22.15-.36.15-.15,0-.28-.05-.37-.15-.1-.1-.14-.22-.14-.36v-11.99Zm5.16,5.1c.34,0,.66-.07.96-.19.3-.13.56-.3.79-.54.23-.23.41-.5.54-.79.13-.3.19-.62.19-.96s-.06-.67-.19-.97c-.13-.3-.31-.56-.54-.78-.23-.22-.49-.4-.79-.53-.3-.13-.62-.18-.96-.18h-4.13v4.94h4.13Z"/>
      <path class="cls-4" d="m310.48,153.21c.7,0,1.33.08,1.88.25.55.16,1.02.44,1.41.8.39.37.69.85.89,1.43.2.59.31,1.3.31,2.14v4.23c0,.68-.1,1.29-.3,1.85-.2.55-.48,1.02-.87,1.42-.38.4-.85.7-1.41.92-.55.22-1.19.32-1.92.32h-.87c-.72,0-1.35-.11-1.91-.32-.56-.22-1.03-.52-1.41-.92-.38-.39-.67-.87-.87-1.42-.19-.56-.29-1.17-.29-1.85v-4.23c0-.84.1-1.56.31-2.14.21-.58.51-1.06.9-1.43.39-.36.86-.64,1.41-.8.55-.17,1.17-.25,1.86-.25h.87Zm-4.29,8.86c0,.51.07.98.22,1.41.15.43.37.8.66,1.11.29.31.65.56,1.07.74.42.18.91.27,1.47.27h.87c.56,0,1.06-.09,1.48-.27.43-.18.79-.42,1.08-.74.29-.31.51-.68.66-1.11.15-.42.22-.89.22-1.41v-4.23c0-1.29-.3-2.21-.92-2.77-.61-.56-1.45-.84-2.52-.84h-.87c-1.06,0-1.89.28-2.5.84-.61.56-.92,1.48-.92,2.77v4.23Z"/>
      <path class="cls-4" d="m333.04,160.18h-3.09v5.88c0,.14-.05.26-.15.36-.1.1-.23.15-.36.15-.15,0-.28-.05-.37-.15-.09-.1-.14-.22-.14-.36v-11.99c0-.26.08-.46.24-.62.16-.16.36-.24.6-.24h4.31c.48,0,.94.09,1.36.28.43.18.8.43,1.11.75.31.32.56.69.74,1.1.18.42.27.87.27,1.34s-.09.91-.26,1.32c-.17.41-.41.78-.71,1.09-.3.31-.65.56-1.05.75-.4.19-.83.3-1.29.32l3.02,5.63c.03.07.04.11.05.14,0,.04,0,.07,0,.11,0,.14-.05.26-.15.36-.1.1-.22.15-.37.15-.21,0-.37-.1-.46-.3l-3.32-6.09Zm1.03-1.01c.34,0,.67-.07.97-.19.3-.13.56-.3.79-.54.23-.23.41-.5.54-.79.13-.3.19-.62.19-.96s-.06-.67-.19-.97c-.13-.3-.31-.56-.54-.78-.23-.22-.49-.4-.79-.53-.3-.13-.62-.18-.97-.18h-4.12v4.94h4.12Z"/>
      <path class="cls-4" d="m361.57,165.97s0,.03,0,.05c0,.03,0,.04,0,.06,0,.13-.05.24-.15.34-.1.1-.22.15-.36.15-.1,0-.2-.03-.29-.11-.09-.08-.16-.15-.19-.23l-1.17-3.65h-5.81l-1.11,3.65c-.04.09-.1.17-.2.24-.1.07-.2.11-.32.11s-.24-.05-.34-.15c-.1-.1-.15-.22-.15-.34,0-.08,0-.13.02-.17.57-1.93,1.16-3.86,1.75-5.78.59-1.93,1.18-3.86,1.76-5.81.1-.33.29-.59.57-.8.27-.2.59-.3.95-.3s.68.1.95.3c.27.21.45.47.56.8l3.51,11.66Zm-4.53-11.33c-.05-.1-.12-.19-.21-.27-.09-.08-.18-.12-.28-.12-.1,0-.2.04-.29.13-.09.08-.16.17-.21.26-.33,1.12-.68,2.27-1.04,3.47-.36,1.19-.72,2.35-1.06,3.46h5.19l-2.1-6.93Z"/>
      <path class="cls-4" d="m374.76,157.83c0-.84.1-1.56.3-2.14.2-.58.5-1.06.89-1.43.39-.36.86-.64,1.41-.8.55-.17,1.18-.25,1.88-.25h3.28c.14,0,.26.05.36.15.1.1.14.22.14.35,0,.14-.05.26-.14.36-.09.1-.21.15-.36.15h-3.28c-1.07,0-1.91.28-2.52.84-.61.56-.92,1.48-.92,2.77v4.23c0,.51.07.98.22,1.41.15.43.36.8.66,1.11.29.31.65.56,1.08.74.42.18.92.27,1.48.27h3.25c.15,0,.28.05.38.14.1.1.15.22.15.36,0,.13-.05.24-.14.34-.09.1-.21.15-.36.15h-3.28c-.72,0-1.37-.11-1.92-.32-.55-.22-1.02-.52-1.4-.92-.38-.39-.67-.87-.87-1.42-.2-.56-.29-1.17-.29-1.85v-4.23Z"/>
      <path class="cls-4" d="m396.97,153.73c0-.14.05-.26.14-.36.09-.1.22-.15.37-.15s.28.05.37.15c.1.1.14.24.14.4v12.26c0,.16-.05.3-.14.4-.1.1-.22.15-.37.15s-.28-.05-.37-.15c-.1-.1-.14-.22-.14-.36v-12.33Z"/>
      <path class="cls-4" d="m417.31,153.21c.7,0,1.33.08,1.88.25.55.16,1.02.44,1.41.8.39.37.68.85.89,1.43.2.59.3,1.3.3,2.14v4.23c0,.68-.1,1.29-.3,1.85-.19.55-.48,1.02-.86,1.42-.38.4-.85.7-1.41.92-.55.22-1.19.32-1.92.32h-.87c-.72,0-1.36-.11-1.92-.32-.56-.22-1.03-.52-1.41-.92-.38-.39-.67-.87-.87-1.42-.2-.56-.3-1.17-.3-1.85v-4.23c0-.84.11-1.56.32-2.14.21-.58.51-1.06.9-1.43.39-.36.86-.64,1.41-.8.56-.17,1.18-.25,1.87-.25h.87Zm-4.3,8.86c0,.51.07.98.22,1.41.14.43.36.8.66,1.11.29.31.65.56,1.07.74.42.18.91.27,1.47.27h.87c.56,0,1.06-.09,1.48-.27.42-.18.78-.42,1.08-.74.29-.31.51-.68.66-1.11.15-.42.22-.89.22-1.41v-4.23c0-1.29-.3-2.21-.92-2.77-.61-.56-1.45-.84-2.52-.84h-.87c-1.06,0-1.89.28-2.5.84-.61.56-.92,1.48-.92,2.77v4.23Zm2.58-9.85c-.07.05-.15.08-.25.08-.19,0-.34-.11-.44-.32-.02-.05-.03-.11-.03-.17,0-.21.09-.36.28-.46l3.06-1.45c.05-.02.11-.04.17-.04.22,0,.38.1.48.29.02.05.03.12.03.21,0,.2-.09.35-.27.46l-3.03,1.41Z"/>
      <path class="cls-4" d="m444.35,153.73c0-.14.05-.26.15-.36.1-.1.22-.15.36-.15.16,0,.28.05.38.15.1.1.16.22.16.36v11.42c0,.41-.14.75-.41,1.02-.27.27-.61.41-1.02.41-.29,0-.55-.08-.78-.23-.23-.15-.4-.36-.52-.61l-5.14-11.25c-.02-.06-.07-.12-.13-.17-.06-.05-.14-.07-.23-.07-.11,0-.21.04-.28.11s-.12.17-.12.29v11.42c0,.14-.05.26-.14.36-.09.1-.22.15-.37.15-.14,0-.26-.05-.36-.15-.1-.1-.15-.22-.15-.36v-11.42c0-.41.14-.75.41-1.03.27-.27.61-.41,1.02-.41.29,0,.55.07.79.23.23.15.4.36.51.61l5.14,11.24c.02.07.07.13.13.18.06.05.14.07.23.07.1,0,.19-.04.25-.11.06-.08.11-.17.13-.29v-11.42Z"/>
    </g>
  </g>
</svg>